<svg aria-hidden="true" data-prefix="far" data-icon="edit" class="svg-inline--fa fa-edit fa-w-18" xmlns="http://www.w3.org/2000/svg" viewBox="0 0 576 512"><path fill="currentColor" d="M402 345l32-32c5-5 14-2 14 6v145c0 27-21 48-48 48H48c-26 0-48-21-48-48V112c0-26 22-48 48-48h274c7 0 10 9 5 14l-32 32-6 2H49v352h352V351l2-6zm157-202L296 406l-90 10c-26 3-49-20-46-46l10-90L433 17c23-23 60-23 83 0l43 43c23 23 23 60 0 83zm-99 31l-58-58-186 186-7 65 65-7 186-186zm65-80l-43-43c-4-4-11-4-15 0l-31 31 58 58 31-31c4-4 4-11 0-15z"/></svg>