<svg aria-hidden="true" data-prefix="fab" data-icon="instagram-square" class="svg-inline--fa fa-instagram-square fa-w-14" xmlns="http://www.w3.org/2000/svg" viewBox="0 0 448 512"><path fill="currentColor" d="M224 203a53 53 0 1053 53 53 53 0 00-53-53zm125-41a54 54 0 00-31-31c-21-8-71-6-94-6s-73-2-94 6a54 54 0 00-31 31c-8 21-6 71-6 94s-2 73 6 94a54 54 0 0031 31c21 8 71 6 94 6s73 2 94-6a54 54 0 0031-31c8-21 6-71 6-94s2-73-6-94zM224 338a82 82 0 1182-82 82 82 0 01-82 82zm85-148a19 19 0 1120-19 19 19 0 01-20 19zm91-158H48A48 48 0 000 80v352a48 48 0 0048 48h352a48 48 0 0048-48V80a48 48 0 00-48-48zm-17 290c-1 26-7 48-26 67s-41 25-67 26H158c-26-1-48-7-67-26s-25-41-26-67V190c1-26 7-48 26-67s41-25 67-26h132c26 2 48 7 67 26s25 41 26 67v132z"/></svg>